<?xml version="1.0" encoding="UTF-8" standalone="no"?>
<!-- Created with Inkscape (http://www.inkscape.org/) -->

<svg
   width="153.28798mm"
   height="153.28796mm"
   viewBox="0 0 153.28798 153.28796"
   version="1.1"
   id="svg1"
   inkscape:version="1.4 (e7c3feb100, 2024-10-09)"
   sodipodi:docname="SatellaOS Logo.svg"
   xml:space="preserve"
   inkscape:export-filename="SatellaOS Logo.png"
   inkscape:export-xdpi="96"
   inkscape:export-ydpi="96"
   xmlns:inkscape="http://www.inkscape.org/namespaces/inkscape"
   xmlns:sodipodi="http://sodipodi.sourceforge.net/DTD/sodipodi-0.dtd"
   xmlns="http://www.w3.org/2000/svg"
   xmlns:svg="http://www.w3.org/2000/svg"><sodipodi:namedview
     id="namedview1"
     pagecolor="#505050"
     bordercolor="#ffffff"
     borderopacity="1"
     inkscape:showpageshadow="0"
     inkscape:pageopacity="0"
     inkscape:pagecheckerboard="1"
     inkscape:deskcolor="#505050"
     inkscape:document-units="mm"
     inkscape:zoom="0.49175084"
     inkscape:cx="397.55906"
     inkscape:cy="561.25984"
     inkscape:window-width="1237"
     inkscape:window-height="761"
     inkscape:window-x="127"
     inkscape:window-y="0"
     inkscape:window-maximized="0"
     inkscape:current-layer="layer1"><inkscape:page
       x="0"
       y="0"
       width="153.28798"
       height="153.28796"
       id="page2"
       margin="0"
       bleed="0" /></sodipodi:namedview><defs
     id="defs1" /><g
     inkscape:label="Katman 1"
     inkscape:groupmode="layer"
     id="layer1"
     transform="translate(0,-143.71204)"><path
       id="path1"
       style="fill:#5a2ca0;fill-opacity:1;stroke-width:0.264583"
       d="M 63.999714,169.00007 A 64,64 0 0 0 0,232.99978 64,64 0 0 0 63.999714,297 64,64 0 0 0 127.99993,232.99978 64,64 0 0 0 63.999714,169.00007 Z m 0,16.00006 a 48,48 0 0 1 48.000166,47.99965 48,48 0 0 1 -48.000166,48.00017 48,48 0 0 1 -47.999657,-48.00017 48,48 0 0 1 47.999657,-47.99965 z" /><ellipse
       style="fill:#5a2ca0;fill-opacity:1;stroke-width:0.264999;stroke-dasharray:none"
       id="path2"
       cx="63.999966"
       cy="233.00003"
       rx="31.999857"
       ry="32" /><path
       sodipodi:type="star"
       style="fill:#5a2ca0;fill-opacity:1;stroke-width:0.264999;stroke-dasharray:none"
       id="path3"
       inkscape:flatsided="false"
       sodipodi:sides="4"
       sodipodi:cx="105"
       sodipodi:cy="25.288042"
       sodipodi:r1="25.288042"
       sodipodi:r2="12.644022"
       sodipodi:arg1="-1.5707963"
       sodipodi:arg2="-0.78539814"
       inkscape:rounded="0"
       inkscape:randomized="0"
       d="m 105,0 8.94067,16.347369 16.34737,8.940674 -16.34737,8.940673 L 105,50.576084 96.059326,34.228716 79.711958,25.288041 96.059327,16.347368 Z"
       inkscape:transform-center-y="-2.4147933"
       transform="translate(22.999936,143.71204)"
       inkscape:highlight-color="#713bee" /></g></svg>
